<svg width="256" height="256" viewBox="0 0 256 256" xmlns="http://www.w3.org/2000/svg">
  <!-- 背景圆形 -->
  <circle cx="128" cy="128" r="120" fill="#3498db" stroke="#2980b9" stroke-width="4"/>
  
  <!-- 可爱的脸部 -->
  <!-- 眼睛 -->
  <circle cx="100" cy="110" r="12" fill="#ffffff"/>
  <circle cx="156" cy="110" r="12" fill="#ffffff"/>
  <circle cx="100" cy="110" r="6" fill="#2c3e50"/>
  <circle cx="156" cy="110" r="6" fill="#2c3e50"/>
  
  <!-- 嘴巴 -->
  <path d="M 110 150 Q 128 170 146 150" stroke="#2c3e50" stroke-width="3" fill="none" stroke-linecap="round"/>
  
  <!-- 腮红 -->
  <circle cx="80" cy="130" r="8" fill="#e74c3c" opacity="0.6"/>
  <circle cx="176" cy="130" r="8" fill="#e74c3c" opacity="0.6"/>
  
  <!-- 装饰性的小星星 -->
  <g fill="#f1c40f" opacity="0.8">
    <polygon points="50,50 52,56 58,56 53,60 55,66 50,62 45,66 47,60 42,56 48,56" />
    <polygon points="200,60 202,66 208,66 203,70 205,76 200,72 195,76 197,70 192,66 198,66" />
    <polygon points="220,180 222,186 228,186 223,190 225,196 220,192 215,196 217,190 212,186 218,186" />
  </g>
  
  <!-- 文字 -->
  <text x="128" y="220" text-anchor="middle" font-family="Arial, sans-serif" font-size="16" font-weight="bold" fill="#2c3e50">Live2D Pet</text>
</svg>
